<mxfile host="app.diagrams.net" modified="2022-12-01T05:52:38.439Z" agent="5.0 (Macintosh; Intel Mac OS X 10_15_7) AppleWebKit/537.36 (KHTML, like Gecko) Chrome/107.0.0.0 Safari/537.36 Edg/107.0.1418.56" etag="76O0ShYbRzWrhtRbLnjI" version="20.5.3" type="github">
  <diagram id="BTfaPalS6rBzT81qltO-" name="第 1 页">
    <mxGraphModel dx="1352" dy="803" grid="1" gridSize="10" guides="1" tooltips="1" connect="1" arrows="1" fold="1" page="1" pageScale="1" pageWidth="827" pageHeight="1169" math="0" shadow="0">
      <root>
        <mxCell id="0" />
        <mxCell id="1" parent="0" />
        <mxCell id="xKlkMQES4GYlRACCXVO0-81" value="" style="endArrow=none;dashed=1;html=1;dashPattern=1 3;strokeWidth=2;rounded=0;sketch=1;fillStyle=solid;fontFamily=Comic Sans MS;fontSize=12;fontColor=#FFB570;entryX=0.5;entryY=1;entryDx=0;entryDy=0;" edge="1" parent="1" target="xKlkMQES4GYlRACCXVO0-79">
          <mxGeometry width="50" height="50" relative="1" as="geometry">
            <mxPoint x="540" y="400" as="sourcePoint" />
            <mxPoint x="740" y="210" as="targetPoint" />
          </mxGeometry>
        </mxCell>
        <mxCell id="xKlkMQES4GYlRACCXVO0-82" value="2022-12-02" style="edgeLabel;html=1;align=center;verticalAlign=middle;resizable=0;points=[];fontSize=12;fontFamily=Comic Sans MS;fontColor=#FFB570;" vertex="1" connectable="0" parent="xKlkMQES4GYlRACCXVO0-81">
          <mxGeometry x="0.28" y="1" relative="1" as="geometry">
            <mxPoint as="offset" />
          </mxGeometry>
        </mxCell>
        <mxCell id="xKlkMQES4GYlRACCXVO0-59" value="" style="endArrow=none;html=1;rounded=0;sketch=1;fontFamily=Comic Sans MS;" edge="1" parent="1">
          <mxGeometry width="50" height="50" relative="1" as="geometry">
            <mxPoint x="335" y="395" as="sourcePoint" />
            <mxPoint x="335" y="140" as="targetPoint" />
          </mxGeometry>
        </mxCell>
        <mxCell id="xKlkMQES4GYlRACCXVO0-60" value="2018-12-06" style="edgeLabel;html=1;align=center;verticalAlign=middle;resizable=0;points=[];fontFamily=Comic Sans MS;" vertex="1" connectable="0" parent="xKlkMQES4GYlRACCXVO0-59">
          <mxGeometry x="-0.1618" y="1" relative="1" as="geometry">
            <mxPoint x="6" y="22" as="offset" />
          </mxGeometry>
        </mxCell>
        <mxCell id="xKlkMQES4GYlRACCXVO0-24" value="" style="endArrow=none;html=1;rounded=0;sketch=1;fontFamily=Comic Sans MS;" edge="1" parent="1">
          <mxGeometry width="50" height="50" relative="1" as="geometry">
            <mxPoint x="620.5" y="615" as="sourcePoint" />
            <mxPoint x="620.5" y="405" as="targetPoint" />
          </mxGeometry>
        </mxCell>
        <mxCell id="xKlkMQES4GYlRACCXVO0-25" value="2022-11-24" style="edgeLabel;html=1;align=center;verticalAlign=middle;resizable=0;points=[];fontFamily=Comic Sans MS;" vertex="1" connectable="0" parent="xKlkMQES4GYlRACCXVO0-24">
          <mxGeometry x="-0.1618" y="1" relative="1" as="geometry">
            <mxPoint x="11" as="offset" />
          </mxGeometry>
        </mxCell>
        <mxCell id="GwimmpZe13cQ27MSvEtw-2" value="" style="endArrow=none;html=1;rounded=0;sketch=1;startArrow=none;" parent="1" source="GwimmpZe13cQ27MSvEtw-9" edge="1">
          <mxGeometry width="50" height="50" relative="1" as="geometry">
            <mxPoint x="40" y="400" as="sourcePoint" />
            <mxPoint x="800" y="400" as="targetPoint" />
          </mxGeometry>
        </mxCell>
        <mxCell id="GwimmpZe13cQ27MSvEtw-3" value="" style="ellipse;shape=doubleEllipse;whiteSpace=wrap;html=1;aspect=fixed;sketch=1;fillColor=#dae8fc;strokeColor=none;fillStyle=solid;gradientColor=none;" parent="1" vertex="1">
          <mxGeometry x="150" y="390" width="20" height="20" as="geometry" />
        </mxCell>
        <mxCell id="GwimmpZe13cQ27MSvEtw-4" value="" style="endArrow=none;html=1;rounded=0;sketch=1;startArrow=none;" parent="1" target="GwimmpZe13cQ27MSvEtw-3" edge="1" source="xKlkMQES4GYlRACCXVO0-32">
          <mxGeometry width="50" height="50" relative="1" as="geometry">
            <mxPoint x="40" y="400" as="sourcePoint" />
            <mxPoint x="800" y="400" as="targetPoint" />
          </mxGeometry>
        </mxCell>
        <mxCell id="GwimmpZe13cQ27MSvEtw-5" value="" style="ellipse;shape=doubleEllipse;whiteSpace=wrap;html=1;aspect=fixed;sketch=1;fillColor=#dae8fc;strokeColor=none;fillStyle=solid;gradientColor=none;" parent="1" vertex="1">
          <mxGeometry x="230" y="390" width="20" height="20" as="geometry" />
        </mxCell>
        <mxCell id="GwimmpZe13cQ27MSvEtw-6" value="" style="endArrow=none;html=1;rounded=0;sketch=1;startArrow=none;" parent="1" source="xKlkMQES4GYlRACCXVO0-45" target="GwimmpZe13cQ27MSvEtw-5" edge="1">
          <mxGeometry width="50" height="50" relative="1" as="geometry">
            <mxPoint x="170" y="400" as="sourcePoint" />
            <mxPoint x="800" y="400" as="targetPoint" />
          </mxGeometry>
        </mxCell>
        <mxCell id="GwimmpZe13cQ27MSvEtw-7" value="" style="ellipse;shape=doubleEllipse;whiteSpace=wrap;html=1;aspect=fixed;sketch=1;fillColor=#dae8fc;strokeColor=none;fillStyle=solid;gradientColor=none;" parent="1" vertex="1">
          <mxGeometry x="470" y="390" width="20" height="20" as="geometry" />
        </mxCell>
        <mxCell id="GwimmpZe13cQ27MSvEtw-8" value="" style="endArrow=none;html=1;rounded=0;sketch=1;startArrow=none;" parent="1" source="xKlkMQES4GYlRACCXVO0-72" target="GwimmpZe13cQ27MSvEtw-7" edge="1">
          <mxGeometry width="50" height="50" relative="1" as="geometry">
            <mxPoint x="260" y="400" as="sourcePoint" />
            <mxPoint x="800" y="400" as="targetPoint" />
          </mxGeometry>
        </mxCell>
        <mxCell id="GwimmpZe13cQ27MSvEtw-10" value="" style="endArrow=none;html=1;rounded=0;sketch=1;startArrow=none;" parent="1" source="GwimmpZe13cQ27MSvEtw-11" target="GwimmpZe13cQ27MSvEtw-9" edge="1">
          <mxGeometry width="50" height="50" relative="1" as="geometry">
            <mxPoint x="424" y="400" as="sourcePoint" />
            <mxPoint x="800" y="400" as="targetPoint" />
          </mxGeometry>
        </mxCell>
        <mxCell id="GwimmpZe13cQ27MSvEtw-12" value="" style="endArrow=none;html=1;rounded=0;sketch=1;startArrow=none;" parent="1" source="GwimmpZe13cQ27MSvEtw-9" target="GwimmpZe13cQ27MSvEtw-11" edge="1">
          <mxGeometry width="50" height="50" relative="1" as="geometry">
            <mxPoint x="480" y="400" as="sourcePoint" />
            <mxPoint x="800" y="400" as="targetPoint" />
          </mxGeometry>
        </mxCell>
        <mxCell id="GwimmpZe13cQ27MSvEtw-13" value="&lt;font face=&quot;Comic Sans MS&quot;&gt;2017&lt;/font&gt;" style="whiteSpace=wrap;html=1;fillColor=none;strokeColor=none;sketch=1;fillStyle=solid;gradientColor=none;" parent="1" vertex="1">
          <mxGeometry x="110" y="410" width="100" height="30" as="geometry" />
        </mxCell>
        <mxCell id="GwimmpZe13cQ27MSvEtw-15" value="&lt;font face=&quot;Comic Sans MS&quot;&gt;2018&lt;/font&gt;" style="whiteSpace=wrap;html=1;fillColor=none;strokeColor=none;sketch=1;fillStyle=solid;gradientColor=none;" parent="1" vertex="1">
          <mxGeometry x="190" y="410" width="100" height="30" as="geometry" />
        </mxCell>
        <mxCell id="GwimmpZe13cQ27MSvEtw-17" value="" style="ellipse;shape=doubleEllipse;whiteSpace=wrap;html=1;aspect=fixed;sketch=1;fillColor=#dae8fc;strokeColor=none;fillStyle=solid;gradientColor=none;" parent="1" vertex="1">
          <mxGeometry x="350" y="390" width="20" height="20" as="geometry" />
        </mxCell>
        <mxCell id="GwimmpZe13cQ27MSvEtw-18" value="" style="endArrow=none;html=1;rounded=0;sketch=1;startArrow=none;" parent="1" source="xKlkMQES4GYlRACCXVO0-57" target="GwimmpZe13cQ27MSvEtw-17" edge="1">
          <mxGeometry width="50" height="50" relative="1" as="geometry">
            <mxPoint x="260" y="400" as="sourcePoint" />
            <mxPoint x="404" y="400" as="targetPoint" />
          </mxGeometry>
        </mxCell>
        <mxCell id="GwimmpZe13cQ27MSvEtw-19" value="&lt;font face=&quot;Comic Sans MS&quot;&gt;2019&lt;/font&gt;" style="whiteSpace=wrap;html=1;fillColor=none;strokeColor=none;sketch=1;fillStyle=solid;gradientColor=none;" parent="1" vertex="1">
          <mxGeometry x="310" y="410" width="100" height="30" as="geometry" />
        </mxCell>
        <mxCell id="GwimmpZe13cQ27MSvEtw-9" value="" style="ellipse;shape=doubleEllipse;whiteSpace=wrap;html=1;aspect=fixed;sketch=1;fillColor=#dae8fc;strokeColor=none;fillStyle=solid;gradientColor=none;" parent="1" vertex="1">
          <mxGeometry x="630" y="390" width="20" height="20" as="geometry" />
        </mxCell>
        <mxCell id="GwimmpZe13cQ27MSvEtw-20" value="" style="endArrow=none;html=1;rounded=0;sketch=1;startArrow=none;" parent="1" source="xKlkMQES4GYlRACCXVO0-26" target="GwimmpZe13cQ27MSvEtw-9" edge="1">
          <mxGeometry width="50" height="50" relative="1" as="geometry">
            <mxPoint x="540" y="400" as="sourcePoint" />
            <mxPoint x="800" y="400" as="targetPoint" />
          </mxGeometry>
        </mxCell>
        <mxCell id="GwimmpZe13cQ27MSvEtw-21" value="&lt;font face=&quot;Comic Sans MS&quot;&gt;2021&lt;/font&gt;" style="whiteSpace=wrap;html=1;fillColor=none;strokeColor=none;sketch=1;fillStyle=solid;gradientColor=none;" parent="1" vertex="1">
          <mxGeometry x="430" y="410" width="100" height="30" as="geometry" />
        </mxCell>
        <mxCell id="GwimmpZe13cQ27MSvEtw-11" value="" style="ellipse;shape=doubleEllipse;whiteSpace=wrap;html=1;aspect=fixed;sketch=1;fillColor=#dae8fc;strokeColor=none;fillStyle=solid;gradientColor=none;" parent="1" vertex="1">
          <mxGeometry x="550" y="390" width="20" height="20" as="geometry" />
        </mxCell>
        <mxCell id="GwimmpZe13cQ27MSvEtw-22" value="" style="endArrow=none;html=1;rounded=0;sketch=1;startArrow=none;" parent="1" source="xKlkMQES4GYlRACCXVO0-12" target="GwimmpZe13cQ27MSvEtw-11" edge="1">
          <mxGeometry width="50" height="50" relative="1" as="geometry">
            <mxPoint x="490" y="400" as="sourcePoint" />
            <mxPoint x="620" y="400" as="targetPoint" />
          </mxGeometry>
        </mxCell>
        <mxCell id="GwimmpZe13cQ27MSvEtw-23" value="&lt;font face=&quot;Comic Sans MS&quot;&gt;2022&lt;/font&gt;" style="whiteSpace=wrap;html=1;fillColor=none;strokeColor=none;sketch=1;fillStyle=solid;gradientColor=none;" parent="1" vertex="1">
          <mxGeometry x="510" y="410" width="100" height="30" as="geometry" />
        </mxCell>
        <mxCell id="xKlkMQES4GYlRACCXVO0-1" value="" style="ellipse;shape=doubleEllipse;whiteSpace=wrap;html=1;aspect=fixed;sketch=1;fillColor=#d80073;strokeColor=#A50040;fillStyle=solid;fontColor=#ffffff;" vertex="1" parent="1">
          <mxGeometry x="180" y="395" width="10" height="10" as="geometry" />
        </mxCell>
        <mxCell id="xKlkMQES4GYlRACCXVO0-2" value="" style="endArrow=none;html=1;rounded=0;sketch=1;startArrow=none;" edge="1" parent="1" source="GwimmpZe13cQ27MSvEtw-3" target="xKlkMQES4GYlRACCXVO0-1">
          <mxGeometry width="50" height="50" relative="1" as="geometry">
            <mxPoint x="170" y="400" as="sourcePoint" />
            <mxPoint x="230" y="400" as="targetPoint" />
          </mxGeometry>
        </mxCell>
        <mxCell id="xKlkMQES4GYlRACCXVO0-4" value="" style="endArrow=none;html=1;rounded=0;sketch=1;fontFamily=Comic Sans MS;" edge="1" parent="1">
          <mxGeometry width="50" height="50" relative="1" as="geometry">
            <mxPoint x="185" y="510" as="sourcePoint" />
            <mxPoint x="184.5" y="405" as="targetPoint" />
          </mxGeometry>
        </mxCell>
        <mxCell id="xKlkMQES4GYlRACCXVO0-8" value="2017-01-30" style="edgeLabel;html=1;align=center;verticalAlign=middle;resizable=0;points=[];fontFamily=Comic Sans MS;" vertex="1" connectable="0" parent="xKlkMQES4GYlRACCXVO0-4">
          <mxGeometry x="-0.1618" y="1" relative="1" as="geometry">
            <mxPoint as="offset" />
          </mxGeometry>
        </mxCell>
        <mxCell id="xKlkMQES4GYlRACCXVO0-6" value="" style="ellipse;shape=doubleEllipse;whiteSpace=wrap;html=1;aspect=fixed;sketch=1;fillColor=#d80073;strokeColor=#A50040;fillStyle=solid;fontColor=#ffffff;" vertex="1" parent="1">
          <mxGeometry x="260" y="395" width="10" height="10" as="geometry" />
        </mxCell>
        <mxCell id="xKlkMQES4GYlRACCXVO0-7" value="" style="endArrow=none;html=1;rounded=0;sketch=1;startArrow=none;" edge="1" parent="1" source="GwimmpZe13cQ27MSvEtw-5" target="xKlkMQES4GYlRACCXVO0-6">
          <mxGeometry width="50" height="50" relative="1" as="geometry">
            <mxPoint x="250" y="400" as="sourcePoint" />
            <mxPoint x="310" y="400" as="targetPoint" />
          </mxGeometry>
        </mxCell>
        <mxCell id="xKlkMQES4GYlRACCXVO0-9" value="" style="endArrow=none;html=1;rounded=0;sketch=1;fontFamily=Comic Sans MS;exitX=0.5;exitY=0;exitDx=0;exitDy=0;" edge="1" parent="1" source="xKlkMQES4GYlRACCXVO0-38">
          <mxGeometry width="50" height="50" relative="1" as="geometry">
            <mxPoint x="265.939393939394" y="550" as="sourcePoint" />
            <mxPoint x="265.5" y="405" as="targetPoint" />
          </mxGeometry>
        </mxCell>
        <mxCell id="xKlkMQES4GYlRACCXVO0-10" value="2018-03-01" style="edgeLabel;html=1;align=center;verticalAlign=middle;resizable=0;points=[];fontFamily=Comic Sans MS;" vertex="1" connectable="0" parent="xKlkMQES4GYlRACCXVO0-9">
          <mxGeometry x="-0.1618" y="1" relative="1" as="geometry">
            <mxPoint x="1" y="-28" as="offset" />
          </mxGeometry>
        </mxCell>
        <mxCell id="xKlkMQES4GYlRACCXVO0-12" value="" style="ellipse;shape=doubleEllipse;whiteSpace=wrap;html=1;aspect=fixed;sketch=1;fillColor=#d80073;strokeColor=#A50040;fillStyle=solid;fontColor=#ffffff;" vertex="1" parent="1">
          <mxGeometry x="536" y="395" width="10" height="10" as="geometry" />
        </mxCell>
        <mxCell id="xKlkMQES4GYlRACCXVO0-13" value="" style="endArrow=none;html=1;rounded=0;sketch=1;startArrow=none;" edge="1" parent="1" source="GwimmpZe13cQ27MSvEtw-7" target="xKlkMQES4GYlRACCXVO0-12">
          <mxGeometry width="50" height="50" relative="1" as="geometry">
            <mxPoint x="490" y="400" as="sourcePoint" />
            <mxPoint x="550" y="400" as="targetPoint" />
          </mxGeometry>
        </mxCell>
        <mxCell id="xKlkMQES4GYlRACCXVO0-14" value="" style="endArrow=none;html=1;rounded=0;sketch=1;fontFamily=Comic Sans MS;" edge="1" parent="1">
          <mxGeometry width="50" height="50" relative="1" as="geometry">
            <mxPoint x="541" y="510" as="sourcePoint" />
            <mxPoint x="540.5" y="405" as="targetPoint" />
          </mxGeometry>
        </mxCell>
        <mxCell id="xKlkMQES4GYlRACCXVO0-15" value="2021-12-17" style="edgeLabel;html=1;align=center;verticalAlign=middle;resizable=0;points=[];fontFamily=Comic Sans MS;" vertex="1" connectable="0" parent="xKlkMQES4GYlRACCXVO0-14">
          <mxGeometry x="-0.1618" y="1" relative="1" as="geometry">
            <mxPoint as="offset" />
          </mxGeometry>
        </mxCell>
        <mxCell id="xKlkMQES4GYlRACCXVO0-17" value="" style="ellipse;shape=doubleEllipse;whiteSpace=wrap;html=1;aspect=fixed;sketch=1;fillColor=#d80073;strokeColor=#A50040;fillStyle=solid;fontColor=#ffffff;" vertex="1" parent="1">
          <mxGeometry x="590" y="395" width="10" height="10" as="geometry" />
        </mxCell>
        <mxCell id="xKlkMQES4GYlRACCXVO0-18" value="" style="endArrow=none;html=1;rounded=0;sketch=1;startArrow=none;" edge="1" parent="1" source="GwimmpZe13cQ27MSvEtw-11" target="xKlkMQES4GYlRACCXVO0-17">
          <mxGeometry width="50" height="50" relative="1" as="geometry">
            <mxPoint x="570" y="400" as="sourcePoint" />
            <mxPoint x="630" y="400" as="targetPoint" />
          </mxGeometry>
        </mxCell>
        <mxCell id="xKlkMQES4GYlRACCXVO0-19" value="" style="endArrow=none;html=1;rounded=0;sketch=1;fontFamily=Comic Sans MS;" edge="1" parent="1">
          <mxGeometry width="50" height="50" relative="1" as="geometry">
            <mxPoint x="594.9545454545455" y="555" as="sourcePoint" />
            <mxPoint x="594.5" y="405" as="targetPoint" />
          </mxGeometry>
        </mxCell>
        <mxCell id="xKlkMQES4GYlRACCXVO0-20" value="2022-05-19" style="edgeLabel;html=1;align=center;verticalAlign=middle;resizable=0;points=[];fontFamily=Comic Sans MS;" vertex="1" connectable="0" parent="xKlkMQES4GYlRACCXVO0-19">
          <mxGeometry x="-0.1618" y="1" relative="1" as="geometry">
            <mxPoint x="-13" y="-2" as="offset" />
          </mxGeometry>
        </mxCell>
        <mxCell id="xKlkMQES4GYlRACCXVO0-22" value="&lt;font face=&quot;Comic Sans MS&quot;&gt;2023&lt;/font&gt;" style="whiteSpace=wrap;html=1;fillColor=none;strokeColor=none;sketch=1;fillStyle=solid;gradientColor=none;" vertex="1" parent="1">
          <mxGeometry x="590" y="410" width="100" height="30" as="geometry" />
        </mxCell>
        <mxCell id="xKlkMQES4GYlRACCXVO0-23" value="&lt;font style=&quot;font-size: 24px;&quot;&gt;...&lt;/font&gt;" style="text;html=1;align=center;verticalAlign=middle;resizable=0;points=[];autosize=1;strokeColor=none;fillColor=none;fontFamily=Comic Sans MS;" vertex="1" parent="1">
          <mxGeometry x="430" y="403" width="40" height="40" as="geometry" />
        </mxCell>
        <mxCell id="xKlkMQES4GYlRACCXVO0-26" value="" style="ellipse;shape=doubleEllipse;whiteSpace=wrap;html=1;aspect=fixed;sketch=1;fillColor=#d80073;strokeColor=#A50040;fillStyle=solid;fontColor=#ffffff;" vertex="1" parent="1">
          <mxGeometry x="616" y="395" width="10" height="10" as="geometry" />
        </mxCell>
        <mxCell id="xKlkMQES4GYlRACCXVO0-27" value="" style="endArrow=none;html=1;rounded=0;sketch=1;startArrow=none;" edge="1" parent="1" source="xKlkMQES4GYlRACCXVO0-17" target="xKlkMQES4GYlRACCXVO0-26">
          <mxGeometry width="50" height="50" relative="1" as="geometry">
            <mxPoint x="600" y="400" as="sourcePoint" />
            <mxPoint x="630" y="400" as="targetPoint" />
          </mxGeometry>
        </mxCell>
        <mxCell id="xKlkMQES4GYlRACCXVO0-29" value="" style="ellipse;shape=doubleEllipse;whiteSpace=wrap;html=1;aspect=fixed;sketch=1;fillColor=#dae8fc;strokeColor=none;fillStyle=solid;gradientColor=none;" vertex="1" parent="1">
          <mxGeometry x="70" y="390" width="20" height="20" as="geometry" />
        </mxCell>
        <mxCell id="xKlkMQES4GYlRACCXVO0-30" value="" style="endArrow=none;html=1;rounded=0;sketch=1;" edge="1" parent="1" target="xKlkMQES4GYlRACCXVO0-29">
          <mxGeometry width="50" height="50" relative="1" as="geometry">
            <mxPoint x="40" y="400" as="sourcePoint" />
            <mxPoint x="150" y="400" as="targetPoint" />
          </mxGeometry>
        </mxCell>
        <mxCell id="xKlkMQES4GYlRACCXVO0-31" value="&lt;font face=&quot;Comic Sans MS&quot;&gt;2016&lt;/font&gt;" style="whiteSpace=wrap;html=1;fillColor=none;strokeColor=none;sketch=1;fillStyle=solid;gradientColor=none;" vertex="1" parent="1">
          <mxGeometry x="30" y="410" width="100" height="30" as="geometry" />
        </mxCell>
        <mxCell id="xKlkMQES4GYlRACCXVO0-32" value="" style="ellipse;shape=doubleEllipse;whiteSpace=wrap;html=1;aspect=fixed;sketch=1;fillColor=#b1ddf0;strokeColor=#10739e;fillStyle=solid;" vertex="1" parent="1">
          <mxGeometry x="130" y="395" width="10" height="10" as="geometry" />
        </mxCell>
        <mxCell id="xKlkMQES4GYlRACCXVO0-33" value="" style="endArrow=none;html=1;rounded=0;sketch=1;startArrow=none;" edge="1" parent="1" source="xKlkMQES4GYlRACCXVO0-29" target="xKlkMQES4GYlRACCXVO0-32">
          <mxGeometry width="50" height="50" relative="1" as="geometry">
            <mxPoint x="90" y="400" as="sourcePoint" />
            <mxPoint x="150" y="400" as="targetPoint" />
          </mxGeometry>
        </mxCell>
        <mxCell id="xKlkMQES4GYlRACCXVO0-34" value="" style="endArrow=none;html=1;rounded=0;sketch=1;fontFamily=Comic Sans MS;" edge="1" parent="1">
          <mxGeometry width="50" height="50" relative="1" as="geometry">
            <mxPoint x="135" y="394" as="sourcePoint" />
            <mxPoint x="134.5" y="289" as="targetPoint" />
          </mxGeometry>
        </mxCell>
        <mxCell id="xKlkMQES4GYlRACCXVO0-35" value="2016-08-09" style="edgeLabel;html=1;align=center;verticalAlign=middle;resizable=0;points=[];fontFamily=Comic Sans MS;" vertex="1" connectable="0" parent="xKlkMQES4GYlRACCXVO0-34">
          <mxGeometry x="-0.1618" y="1" relative="1" as="geometry">
            <mxPoint as="offset" />
          </mxGeometry>
        </mxCell>
        <mxCell id="xKlkMQES4GYlRACCXVO0-37" value="&lt;span style=&quot;&quot;&gt;1.5.x Release&lt;/span&gt;" style="rounded=0;whiteSpace=wrap;html=1;sketch=1;fillStyle=solid;strokeColor=#36393d;fontFamily=Comic Sans MS;fontSize=12;fillColor=#ffcc99;" vertex="1" parent="1">
          <mxGeometry x="150" y="510" width="70" height="30" as="geometry" />
        </mxCell>
        <mxCell id="xKlkMQES4GYlRACCXVO0-38" value="&lt;span style=&quot;&quot;&gt;2.0.x Release&lt;/span&gt;" style="rounded=0;whiteSpace=wrap;html=1;sketch=1;fillStyle=solid;strokeColor=#36393d;fontFamily=Comic Sans MS;fontSize=12;fillColor=#ffcc99;" vertex="1" parent="1">
          <mxGeometry x="230" y="600" width="70" height="30" as="geometry" />
        </mxCell>
        <mxCell id="xKlkMQES4GYlRACCXVO0-39" value="&lt;span style=&quot;&quot;&gt;2.6.x Release&lt;/span&gt;" style="rounded=0;whiteSpace=wrap;html=1;sketch=1;fillStyle=solid;strokeColor=#36393d;fontFamily=Comic Sans MS;fontSize=12;fillColor=#ffcc99;" vertex="1" parent="1">
          <mxGeometry x="506" y="510" width="70" height="30" as="geometry" />
        </mxCell>
        <mxCell id="xKlkMQES4GYlRACCXVO0-40" value="&lt;span style=&quot;&quot;&gt;2.7.x Release&lt;/span&gt;" style="rounded=0;whiteSpace=wrap;html=1;sketch=1;fillStyle=solid;strokeColor=#36393d;fontFamily=Comic Sans MS;fontSize=12;fillColor=#ffcc99;" vertex="1" parent="1">
          <mxGeometry x="560" y="555" width="70" height="30" as="geometry" />
        </mxCell>
        <mxCell id="xKlkMQES4GYlRACCXVO0-41" value="&lt;span style=&quot;&quot;&gt;3.0 GA&lt;/span&gt;" style="rounded=0;whiteSpace=wrap;html=1;sketch=1;fillStyle=solid;strokeColor=#36393d;fontFamily=Comic Sans MS;fontSize=12;fillColor=#ffcc99;" vertex="1" parent="1">
          <mxGeometry x="576" y="615" width="90" height="30" as="geometry" />
        </mxCell>
        <mxCell id="xKlkMQES4GYlRACCXVO0-42" value="&lt;span style=&quot;&quot;&gt;1.4.0.RELEASE&lt;/span&gt;" style="rounded=0;whiteSpace=wrap;html=1;sketch=1;fillStyle=solid;strokeColor=#82b366;fontFamily=Comic Sans MS;fontSize=12;fillColor=#d5e8d4;" vertex="1" parent="1">
          <mxGeometry x="77.5" y="250" width="115" height="40" as="geometry" />
        </mxCell>
        <mxCell id="xKlkMQES4GYlRACCXVO0-43" value="" style="endArrow=classic;html=1;rounded=0;sketch=1;fontFamily=Comic Sans MS;fontSize=12;fillColor=#f0a30a;strokeColor=#BD7000;" edge="1" parent="1">
          <mxGeometry width="50" height="50" relative="1" as="geometry">
            <mxPoint x="30" y="610" as="sourcePoint" />
            <mxPoint x="150" y="610" as="targetPoint" />
          </mxGeometry>
        </mxCell>
        <mxCell id="xKlkMQES4GYlRACCXVO0-44" value="Spring Boot Milestones" style="text;html=1;align=center;verticalAlign=middle;resizable=0;points=[];autosize=1;strokeColor=none;fillColor=none;fontSize=12;fontFamily=Comic Sans MS;" vertex="1" parent="1">
          <mxGeometry x="20" y="580" width="150" height="30" as="geometry" />
        </mxCell>
        <mxCell id="xKlkMQES4GYlRACCXVO0-45" value="" style="ellipse;shape=doubleEllipse;whiteSpace=wrap;html=1;aspect=fixed;sketch=1;fillColor=#b1ddf0;strokeColor=#10739e;fillStyle=solid;" vertex="1" parent="1">
          <mxGeometry x="217" y="395" width="10" height="10" as="geometry" />
        </mxCell>
        <mxCell id="xKlkMQES4GYlRACCXVO0-46" value="" style="endArrow=none;html=1;rounded=0;sketch=1;startArrow=none;" edge="1" parent="1" source="xKlkMQES4GYlRACCXVO0-1" target="xKlkMQES4GYlRACCXVO0-45">
          <mxGeometry width="50" height="50" relative="1" as="geometry">
            <mxPoint x="190" y="400" as="sourcePoint" />
            <mxPoint x="230" y="400" as="targetPoint" />
          </mxGeometry>
        </mxCell>
        <mxCell id="xKlkMQES4GYlRACCXVO0-47" value="" style="endArrow=none;html=1;rounded=0;sketch=1;fontFamily=Comic Sans MS;" edge="1" parent="1">
          <mxGeometry width="50" height="50" relative="1" as="geometry">
            <mxPoint x="220.5" y="395" as="sourcePoint" />
            <mxPoint x="220" y="190" as="targetPoint" />
          </mxGeometry>
        </mxCell>
        <mxCell id="xKlkMQES4GYlRACCXVO0-48" value="2017-12-15" style="edgeLabel;html=1;align=center;verticalAlign=middle;resizable=0;points=[];fontFamily=Comic Sans MS;" vertex="1" connectable="0" parent="xKlkMQES4GYlRACCXVO0-47">
          <mxGeometry x="-0.1618" y="1" relative="1" as="geometry">
            <mxPoint as="offset" />
          </mxGeometry>
        </mxCell>
        <mxCell id="xKlkMQES4GYlRACCXVO0-49" value="&lt;span style=&quot;&quot;&gt;1.5.9.RELEASE&lt;/span&gt;" style="rounded=0;whiteSpace=wrap;html=1;sketch=1;fillStyle=solid;strokeColor=#82b366;fontFamily=Comic Sans MS;fontSize=12;fillColor=#d5e8d4;" vertex="1" parent="1">
          <mxGeometry x="164.5" y="150" width="115" height="40" as="geometry" />
        </mxCell>
        <mxCell id="xKlkMQES4GYlRACCXVO0-50" value="" style="ellipse;shape=doubleEllipse;whiteSpace=wrap;html=1;aspect=fixed;sketch=1;fillColor=#b1ddf0;strokeColor=#10739e;fillStyle=solid;" vertex="1" parent="1">
          <mxGeometry x="278" y="395" width="10" height="10" as="geometry" />
        </mxCell>
        <mxCell id="xKlkMQES4GYlRACCXVO0-51" value="" style="endArrow=none;html=1;rounded=0;sketch=1;startArrow=none;" edge="1" parent="1" source="xKlkMQES4GYlRACCXVO0-6" target="xKlkMQES4GYlRACCXVO0-50">
          <mxGeometry width="50" height="50" relative="1" as="geometry">
            <mxPoint x="280" y="400" as="sourcePoint" />
            <mxPoint x="310" y="400" as="targetPoint" />
          </mxGeometry>
        </mxCell>
        <mxCell id="xKlkMQES4GYlRACCXVO0-53" value="" style="endArrow=none;html=1;rounded=0;sketch=1;fontFamily=Comic Sans MS;" edge="1" parent="1">
          <mxGeometry width="50" height="50" relative="1" as="geometry">
            <mxPoint x="283.5" y="394" as="sourcePoint" />
            <mxPoint x="283" y="260" as="targetPoint" />
          </mxGeometry>
        </mxCell>
        <mxCell id="xKlkMQES4GYlRACCXVO0-54" value="2018-05-11" style="edgeLabel;html=1;align=center;verticalAlign=middle;resizable=0;points=[];fontFamily=Comic Sans MS;" vertex="1" connectable="0" parent="xKlkMQES4GYlRACCXVO0-53">
          <mxGeometry x="-0.1618" y="1" relative="1" as="geometry">
            <mxPoint x="6" y="22" as="offset" />
          </mxGeometry>
        </mxCell>
        <mxCell id="xKlkMQES4GYlRACCXVO0-55" value="&lt;span style=&quot;&quot;&gt;1.5.13.RELEASE&lt;/span&gt;" style="rounded=0;whiteSpace=wrap;html=1;sketch=1;fillStyle=solid;strokeColor=#82b366;fontFamily=Comic Sans MS;fontSize=12;fillColor=#d5e8d4;" vertex="1" parent="1">
          <mxGeometry x="227" y="220" width="115" height="40" as="geometry" />
        </mxCell>
        <mxCell id="xKlkMQES4GYlRACCXVO0-57" value="" style="ellipse;shape=doubleEllipse;whiteSpace=wrap;html=1;aspect=fixed;sketch=1;fillColor=#b1ddf0;strokeColor=#10739e;fillStyle=solid;" vertex="1" parent="1">
          <mxGeometry x="330" y="395" width="10" height="10" as="geometry" />
        </mxCell>
        <mxCell id="xKlkMQES4GYlRACCXVO0-58" value="" style="endArrow=none;html=1;rounded=0;sketch=1;startArrow=none;" edge="1" parent="1" source="xKlkMQES4GYlRACCXVO0-65" target="xKlkMQES4GYlRACCXVO0-57">
          <mxGeometry width="50" height="50" relative="1" as="geometry">
            <mxPoint x="288" y="400" as="sourcePoint" />
            <mxPoint x="350" y="400" as="targetPoint" />
          </mxGeometry>
        </mxCell>
        <mxCell id="xKlkMQES4GYlRACCXVO0-61" value="&lt;span style=&quot;&quot;&gt;1.5.18.RELEASE&lt;/span&gt;" style="rounded=0;whiteSpace=wrap;html=1;sketch=1;fillStyle=solid;strokeColor=#82b366;fontFamily=Comic Sans MS;fontSize=12;fillColor=#d5e8d4;" vertex="1" parent="1">
          <mxGeometry x="277.5" y="100" width="115" height="40" as="geometry" />
        </mxCell>
        <mxCell id="xKlkMQES4GYlRACCXVO0-63" value="" style="shape=flexArrow;endArrow=classic;html=1;rounded=0;sketch=1;fontFamily=Comic Sans MS;fontSize=12;fontColor=#FFB570;fillColor=#fa6800;strokeColor=#C73500;fillStyle=solid;" edge="1" parent="1">
          <mxGeometry width="50" height="50" relative="1" as="geometry">
            <mxPoint x="335" y="440" as="sourcePoint" />
            <mxPoint x="334.5" y="405" as="targetPoint" />
          </mxGeometry>
        </mxCell>
        <mxCell id="xKlkMQES4GYlRACCXVO0-64" value="&lt;b&gt;We Are Here&lt;/b&gt;" style="text;html=1;align=center;verticalAlign=middle;resizable=0;points=[];autosize=1;strokeColor=#BD7000;fillColor=#f0a30a;fontSize=12;fontFamily=Comic Sans MS;fontColor=#000000;" vertex="1" parent="1">
          <mxGeometry x="292.5" y="443" width="100" height="30" as="geometry" />
        </mxCell>
        <mxCell id="xKlkMQES4GYlRACCXVO0-65" value="" style="ellipse;shape=doubleEllipse;whiteSpace=wrap;html=1;aspect=fixed;sketch=1;fillColor=#d80073;strokeColor=#A50040;fillStyle=solid;fontColor=#ffffff;" vertex="1" parent="1">
          <mxGeometry x="310" y="395" width="10" height="10" as="geometry" />
        </mxCell>
        <mxCell id="xKlkMQES4GYlRACCXVO0-66" value="" style="endArrow=none;html=1;rounded=0;sketch=1;startArrow=none;" edge="1" parent="1" source="xKlkMQES4GYlRACCXVO0-50" target="xKlkMQES4GYlRACCXVO0-65">
          <mxGeometry width="50" height="50" relative="1" as="geometry">
            <mxPoint x="288" y="400" as="sourcePoint" />
            <mxPoint x="330" y="400" as="targetPoint" />
          </mxGeometry>
        </mxCell>
        <mxCell id="xKlkMQES4GYlRACCXVO0-67" value="" style="endArrow=none;html=1;rounded=0;sketch=1;fontFamily=Comic Sans MS;" edge="1" parent="1">
          <mxGeometry width="50" height="50" relative="1" as="geometry">
            <mxPoint x="315" y="550" as="sourcePoint" />
            <mxPoint x="314.5" y="405" as="targetPoint" />
          </mxGeometry>
        </mxCell>
        <mxCell id="xKlkMQES4GYlRACCXVO0-68" value="2018-11-29" style="edgeLabel;html=1;align=center;verticalAlign=middle;resizable=0;points=[];fontFamily=Comic Sans MS;" vertex="1" connectable="0" parent="xKlkMQES4GYlRACCXVO0-67">
          <mxGeometry x="-0.1618" y="1" relative="1" as="geometry">
            <mxPoint x="1" y="41" as="offset" />
          </mxGeometry>
        </mxCell>
        <mxCell id="xKlkMQES4GYlRACCXVO0-69" value="&lt;span style=&quot;&quot;&gt;1.5.18 Release&lt;/span&gt;" style="rounded=0;whiteSpace=wrap;html=1;sketch=1;fillStyle=solid;strokeColor=#36393d;fontFamily=Comic Sans MS;fontSize=12;fillColor=#ffcc99;" vertex="1" parent="1">
          <mxGeometry x="280" y="550" width="70" height="30" as="geometry" />
        </mxCell>
        <mxCell id="xKlkMQES4GYlRACCXVO0-70" value="" style="shape=flexArrow;endArrow=classic;html=1;rounded=0;sketch=1;fontFamily=Comic Sans MS;fontSize=12;fontColor=#FFB570;fillColor=#fa6800;strokeColor=#C73500;fillStyle=solid;" edge="1" parent="1">
          <mxGeometry width="50" height="50" relative="1" as="geometry">
            <mxPoint x="540.5" y="350" as="sourcePoint" />
            <mxPoint x="540.5" y="390" as="targetPoint" />
          </mxGeometry>
        </mxCell>
        <mxCell id="xKlkMQES4GYlRACCXVO0-71" value="&lt;b&gt;Where We Go&lt;/b&gt;" style="text;html=1;align=center;verticalAlign=middle;resizable=0;points=[];autosize=1;strokeColor=#BD7000;fillColor=#f0a30a;fontSize=12;fontFamily=Comic Sans MS;fontColor=#000000;" vertex="1" parent="1">
          <mxGeometry x="486" y="317" width="110" height="30" as="geometry" />
        </mxCell>
        <mxCell id="xKlkMQES4GYlRACCXVO0-72" value="" style="ellipse;shape=doubleEllipse;whiteSpace=wrap;html=1;aspect=fixed;sketch=1;fillColor=#d80073;strokeColor=#A50040;fillStyle=solid;fontColor=#ffffff;" vertex="1" parent="1">
          <mxGeometry x="404" y="395" width="10" height="10" as="geometry" />
        </mxCell>
        <mxCell id="xKlkMQES4GYlRACCXVO0-73" value="" style="endArrow=none;html=1;rounded=0;sketch=1;startArrow=none;" edge="1" parent="1" source="GwimmpZe13cQ27MSvEtw-17" target="xKlkMQES4GYlRACCXVO0-72">
          <mxGeometry width="50" height="50" relative="1" as="geometry">
            <mxPoint x="370" y="400" as="sourcePoint" />
            <mxPoint x="470" y="400" as="targetPoint" />
          </mxGeometry>
        </mxCell>
        <mxCell id="xKlkMQES4GYlRACCXVO0-74" value="" style="endArrow=none;html=1;rounded=0;sketch=1;fontFamily=Comic Sans MS;" edge="1" parent="1">
          <mxGeometry width="50" height="50" relative="1" as="geometry">
            <mxPoint x="409" y="550" as="sourcePoint" />
            <mxPoint x="408.5" y="405" as="targetPoint" />
          </mxGeometry>
        </mxCell>
        <mxCell id="xKlkMQES4GYlRACCXVO0-75" value="2019-08-01" style="edgeLabel;html=1;align=center;verticalAlign=middle;resizable=0;points=[];fontFamily=Comic Sans MS;" vertex="1" connectable="0" parent="xKlkMQES4GYlRACCXVO0-74">
          <mxGeometry x="-0.1618" y="1" relative="1" as="geometry">
            <mxPoint x="1" y="11" as="offset" />
          </mxGeometry>
        </mxCell>
        <mxCell id="xKlkMQES4GYlRACCXVO0-76" value="&lt;span style=&quot;&quot;&gt;1.x EOL&lt;/span&gt;" style="rounded=0;whiteSpace=wrap;html=1;sketch=1;fillStyle=solid;strokeColor=#B20000;fontFamily=Comic Sans MS;fontSize=12;fillColor=#e51400;fontColor=#ffffff;" vertex="1" parent="1">
          <mxGeometry x="374" y="550" width="70" height="30" as="geometry" />
        </mxCell>
        <mxCell id="xKlkMQES4GYlRACCXVO0-77" value="" style="endArrow=classic;html=1;rounded=0;sketch=1;fontFamily=Comic Sans MS;fontSize=12;fillColor=#d5e8d4;strokeColor=#82b366;" edge="1" parent="1">
          <mxGeometry width="50" height="50" relative="1" as="geometry">
            <mxPoint x="30" y="130" as="sourcePoint" />
            <mxPoint x="150" y="130" as="targetPoint" />
          </mxGeometry>
        </mxCell>
        <mxCell id="xKlkMQES4GYlRACCXVO0-78" value="PatSnap Spring Boot Integrations" style="text;html=1;align=center;verticalAlign=middle;resizable=0;points=[];autosize=1;strokeColor=none;fillColor=none;fontSize=12;fontFamily=Comic Sans MS;" vertex="1" parent="1">
          <mxGeometry x="10" y="100" width="210" height="30" as="geometry" />
        </mxCell>
        <mxCell id="xKlkMQES4GYlRACCXVO0-79" value="&lt;span style=&quot;&quot;&gt;2.6.6&lt;/span&gt;" style="rounded=0;whiteSpace=wrap;html=1;sketch=1;fillStyle=solid;strokeColor=#82b366;fontFamily=Comic Sans MS;fontSize=12;fillColor=#d5e8d4;" vertex="1" parent="1">
          <mxGeometry x="481" y="110" width="115" height="40" as="geometry" />
        </mxCell>
      </root>
    </mxGraphModel>
  </diagram>
</mxfile>
